<svg id="six" xmlns="http://www.w3.org/2000/svg" viewBox="0 0 21 21"><defs><style>.cls-1{fill:#231f20;stroke:#231f20;stroke-miterlimit:10;}</style></defs><path class="cls-1" d="M19.53,2H4.47A2.48,2.48,0,0,0,2,4.47V19.53A2.48,2.48,0,0,0,4.47,22H19.53A2.48,2.48,0,0,0,22,19.53V4.47A2.48,2.48,0,0,0,19.53,2ZM9,12a3,3,0,0,1-3,3,3,3,0,1,1-3,3,3,3,0,0,1,3-3A3,3,0,0,1,6,9,3,3,0,1,1,9,6,3,3,0,0,1,6,9,3,3,0,0,1,9,12Zm12,0a3,3,0,0,1-3,3,3,3,0,1,1-3,3,3,3,0,0,1,3-3,3,3,0,0,1,0-6,3,3,0,1,1,3-3,3,3,0,0,1-3,3A3,3,0,0,1,21,12Z" transform="translate(-1.5 -1.5)"/></svg>